<svg width="70" height="73" viewBox="0 0 70 73" fill="none" xmlns="http://www.w3.org/2000/svg">
<path fill-rule="evenodd" clip-rule="evenodd" d="M53.3016 0C63.4152 0 69.9754 6.80707 69.9754 17.3013V55.3074C69.9754 65.8017 63.4152 72.6087 53.3016 72.6087H16.6739C6.5602 72.6087 0 65.8017 0 55.3074V17.3013C0 6.80707 6.5602 0 16.6739 0H53.3016Z" fill="#010326"/>
<g filter="url(#filter0_i_209_2)">
<path fill-rule="evenodd" clip-rule="evenodd" d="M34.9877 68.7139C53.3606 68.7139 68.2547 54.2659 68.2547 36.4434C68.2547 18.6209 53.3606 4.17285 34.9877 4.17285C16.6149 4.17285 1.7207 18.6209 1.7207 36.4434C1.7207 54.2659 16.6149 68.7139 34.9877 68.7139Z" fill="#F2294E"/>
</g>
<g filter="url(#filter1_i_209_2)">
<path d="M36.0317 23.9252H23.2305L25.9237 26.5416H36.0317C38.7689 26.5416 41.3939 27.6008 43.3293 29.4862C45.2647 31.3715 46.3521 33.9287 46.3521 36.595C46.3521 39.2614 45.2647 41.8185 43.3293 43.7039C41.3939 45.5892 38.7689 46.6485 36.0317 46.6485H29.7218L32.186 44.2515H36.0335C38.1175 44.2515 40.116 43.4451 41.5896 42.0096C43.0632 40.5741 43.8911 38.6272 43.8911 36.5971C43.8911 34.5671 43.0632 32.6202 41.5896 31.1847C40.116 29.7493 38.1175 28.9429 36.0335 28.9429H28.3833L31.1348 31.6215L34.5286 34.9249H36.0317C36.4862 34.9249 36.9221 35.1008 37.2434 35.4138C37.5648 35.7269 37.7453 36.1514 37.7453 36.5941C37.7453 37.0369 37.5648 37.4615 37.2434 37.7745C36.9221 38.0875 36.4862 38.2634 36.0317 38.2634H34.5332L31.7817 40.9449H36.0317C36.6179 40.9449 37.1982 40.8324 37.7397 40.6139C38.2812 40.3954 38.7732 40.0752 39.1877 39.6714C39.6021 39.2677 39.9308 38.7884 40.1551 38.2609C40.3794 37.7335 40.4949 37.1681 40.4949 36.5971C40.4949 36.0262 40.3794 35.4608 40.1551 34.9334C39.9308 34.4059 39.6021 33.9266 39.1877 33.5229C38.7732 33.1191 38.2812 32.7989 37.7397 32.5804C37.1982 32.3619 36.6179 32.2495 36.0317 32.2495H35.5804L34.9364 31.6211H34.9531L36.0317 31.6183C37.3872 31.6183 38.6871 32.1428 39.6456 33.0765C40.604 34.0101 41.1425 35.2764 41.1425 36.5968C41.1425 37.9172 40.604 39.1835 39.6456 40.1172C38.6871 41.0508 37.3872 41.5754 36.0317 41.5754H31.1311L25.9246 46.648L23.2333 49.2695H36.0317C39.4819 49.2695 42.7908 47.9344 45.2304 45.5578C47.6701 43.1813 49.0405 39.9581 49.0405 36.5971C49.0405 33.2362 47.6701 30.013 45.2304 27.6365C42.7908 25.2599 39.4819 23.9248 36.0317 23.9248V23.9252Z" fill="#F2F2F2"/>
<path d="M36.0317 23.9252H23.2305L25.9237 26.5416H36.0317C38.7689 26.5416 41.3939 27.6008 43.3293 29.4862C45.2647 31.3715 46.3521 33.9287 46.3521 36.595C46.3521 39.2614 45.2647 41.8185 43.3293 43.7039C41.3939 45.5892 38.7689 46.6485 36.0317 46.6485H29.7218L32.186 44.2515H36.0335C38.1175 44.2515 40.116 43.4451 41.5896 42.0096C43.0632 40.5741 43.8911 38.6272 43.8911 36.5971C43.8911 34.5671 43.0632 32.6202 41.5896 31.1847C40.116 29.7493 38.1175 28.9429 36.0335 28.9429H28.3833L31.1348 31.6215L34.5286 34.9249H36.0317C36.4862 34.9249 36.9221 35.1008 37.2434 35.4138C37.5648 35.7269 37.7453 36.1514 37.7453 36.5941C37.7453 37.0369 37.5648 37.4615 37.2434 37.7745C36.9221 38.0875 36.4862 38.2634 36.0317 38.2634H34.5332L31.7817 40.9449H36.0317C36.6179 40.9449 37.1982 40.8324 37.7397 40.6139C38.2812 40.3954 38.7732 40.0752 39.1877 39.6714C39.6021 39.2677 39.9308 38.7884 40.1551 38.2609C40.3794 37.7335 40.4949 37.1681 40.4949 36.5971C40.4949 36.0262 40.3794 35.4608 40.1551 34.9334C39.9308 34.4059 39.6021 33.9266 39.1877 33.5229C38.7732 33.1191 38.2812 32.7989 37.7397 32.5804C37.1982 32.3619 36.6179 32.2495 36.0317 32.2495H35.5804L34.9364 31.6211H34.9531L36.0317 31.6183C37.3872 31.6183 38.6871 32.1428 39.6456 33.0765C40.604 34.0101 41.1425 35.2764 41.1425 36.5968C41.1425 37.9172 40.604 39.1835 39.6456 40.1172C38.6871 41.0508 37.3872 41.5754 36.0317 41.5754H31.1311L25.9246 46.648L23.2333 49.2695H36.0317C39.4819 49.2695 42.7908 47.9344 45.2304 45.5578C47.6701 43.1813 49.0405 39.9581 49.0405 36.5971C49.0405 33.2362 47.6701 30.013 45.2304 27.6365C42.7908 25.2599 39.4819 23.9248 36.0317 23.9248V23.9252Z" stroke="white"/>
<path d="M32.5667 36.596L23.2295 27.5005V45.6933L25.9225 43.0697L32.5667 36.596Z" fill="#6B8DF2"/>
<path d="M32.5667 36.596L23.2295 27.5005V45.6933L25.9225 43.0697L32.5667 36.596Z" stroke="white"/>
</g>
<g filter="url(#filter2_d_209_2)">
<path d="M19.2916 44.5512C18.6771 43.8818 18.315 43.0283 18.2652 42.1314V30.9466C18.3149 30.0496 18.677 29.1959 19.2916 28.5267L20.1034 27.7352C20.3756 27.4693 20.5285 27.1089 20.5285 26.7332C20.5285 26.3575 20.3756 25.9972 20.1034 25.7313L11.4927 17.3349C11.2196 17.0698 10.85 16.9209 10.4646 16.9209C10.0792 16.9209 9.70954 17.0698 9.43649 17.3349L6.15882 20.5306C5.88786 20.7971 5.73584 21.1572 5.73584 21.5325C5.73584 21.9078 5.88786 22.2679 6.15882 22.5345L12.3044 28.5264C12.9202 29.1951 13.2828 30.049 13.332 30.9463V42.1311C13.2829 43.028 12.9203 43.8813 12.3044 44.5494L6.15882 50.5435C5.88786 50.8102 5.73584 51.1703 5.73584 51.5454C5.73584 51.9207 5.88786 52.2809 6.15882 52.5475L9.43649 55.7431C9.70957 56.0081 10.0792 56.157 10.4646 56.157C10.8499 56.157 11.2196 56.0081 11.4927 55.7431L20.1034 47.3461C20.3756 47.08 20.5285 46.7199 20.5285 46.3443C20.5285 45.9684 20.3756 45.6082 20.1034 45.3424L19.2916 44.5512Z" fill="#1E237A"/>
<path d="M42.9555 51.602C42.2692 52.2011 41.394 52.5546 40.474 52.6041H29.0055C28.0849 52.5546 27.209 52.2013 26.5219 51.602L25.712 50.8084C25.438 50.5442 25.0682 50.396 24.683 50.396C24.2977 50.396 23.9279 50.5442 23.6539 50.8084L15.0443 59.2048C14.7725 59.4715 14.6199 59.8322 14.6199 60.208C14.6199 60.5839 14.7725 60.9446 15.0443 61.211L18.3219 64.4068C18.5956 64.671 18.9652 64.8191 19.3503 64.8191C19.7354 64.8191 20.105 64.671 20.3787 64.4068L26.523 58.4118C27.2099 57.813 28.0856 57.4597 29.0058 57.4102H40.4776C41.3976 57.4595 42.2727 57.8127 42.9591 58.4118L49.106 64.4068C49.3796 64.671 49.7489 64.8191 50.134 64.8191C50.5188 64.8191 50.8884 64.671 51.1617 64.4068L54.4393 61.211C54.7113 60.9446 54.8638 60.5839 54.8638 60.208C54.8638 59.8322 54.7113 59.4715 54.4393 59.2048L45.8235 50.8079C45.5501 50.5436 45.1809 50.3955 44.796 50.3955C44.4112 50.3955 44.0417 50.5436 43.7684 50.8079L42.9555 51.602Z" fill="#1E237A"/>
<path d="M50.3936 28.6129C51.0097 29.2828 51.3729 30.1378 51.423 31.0363V42.2168C51.3727 43.1148 51.0094 43.9691 50.3936 44.6383L49.5816 45.4315C49.3102 45.6979 49.158 46.0581 49.158 46.4337C49.158 46.809 49.3102 47.1692 49.5816 47.4355L58.1948 55.8309C58.4678 56.096 58.8376 56.2446 59.2227 56.2446C59.6081 56.2446 59.9776 56.096 60.2507 55.8309L63.5283 52.6335C63.8003 52.3674 63.9531 52.007 63.9531 51.6314C63.9531 51.2558 63.8003 50.8953 63.5283 50.6292L57.3841 44.6372C56.768 43.968 56.4045 43.1137 56.3542 42.2158L56.3559 31.0352C56.4053 30.1368 56.768 29.2818 57.3841 28.6118L63.5283 22.6199C63.8003 22.3543 63.9531 21.9943 63.9531 21.619C63.9531 21.2437 63.8003 20.8837 63.5283 20.6181L60.2507 17.4206C60.1157 17.2889 59.9555 17.1845 59.7792 17.1133C59.6026 17.0421 59.4138 17.0054 59.2227 17.0054C59.0319 17.0054 58.8428 17.0421 58.6665 17.1133C58.4899 17.1845 58.3298 17.2889 58.1948 17.4206L49.5816 25.8156C49.3102 26.082 49.158 26.4422 49.158 26.8177C49.158 27.1932 49.3102 27.5534 49.5816 27.8198L50.3936 28.6129Z" fill="#1E237A"/>
<path d="M26.7295 21.5626C27.4156 20.9626 28.2912 20.6091 29.2115 20.5605H40.681C41.601 20.61 42.4761 20.9634 43.1627 21.5626L43.9764 22.3556C44.1111 22.4872 44.2713 22.5916 44.4476 22.6628C44.6239 22.734 44.8127 22.7707 45.0035 22.7707C45.1943 22.7707 45.3834 22.734 45.5595 22.6628C45.7357 22.5916 45.8959 22.4872 46.0309 22.3556L54.6427 13.9587C54.9144 13.6922 55.0669 13.3316 55.0669 12.9557C55.0669 12.5799 54.9144 12.2192 54.6427 11.9527L51.3651 8.76071C51.0923 8.49497 50.7225 8.3457 50.3368 8.3457C49.9512 8.3457 49.5814 8.49497 49.3086 8.76071L43.163 14.7526C42.4764 15.3518 41.6012 15.7052 40.6812 15.7547H29.2115C28.2912 15.7061 27.4156 15.3525 26.7295 14.7526L20.5838 8.76071C20.3102 8.49659 19.9407 8.34843 19.5556 8.34843C19.1706 8.34843 18.8011 8.49659 18.5274 8.76071L15.2497 11.9564C14.978 12.2229 14.8254 12.5835 14.8254 12.9593C14.8254 13.3351 14.978 13.6957 15.2497 13.9622L23.8596 22.3554C24.1324 22.6211 24.5022 22.7704 24.8878 22.7704C25.2734 22.7704 25.6433 22.6211 25.9161 22.3554L26.7295 21.5626Z" fill="#1E237A"/>
</g>
<defs>
<filter id="filter0_i_209_2" x="1.7207" y="4.17285" width="66.5339" height="68.541" filterUnits="userSpaceOnUse" color-interpolation-filters="sRGB">
<feFlood flood-opacity="0" result="BackgroundImageFix"/>
<feBlend mode="normal" in="SourceGraphic" in2="BackgroundImageFix" result="shape"/>
<feColorMatrix in="SourceAlpha" type="matrix" values="0 0 0 0 0 0 0 0 0 0 0 0 0 0 0 0 0 0 127 0" result="hardAlpha"/>
<feOffset dy="4"/>
<feGaussianBlur stdDeviation="2"/>
<feComposite in2="hardAlpha" operator="arithmetic" k2="-1" k3="1"/>
<feColorMatrix type="matrix" values="0 0 0 0 0 0 0 0 0 0 0 0 0 0 0 0 0 0 0.25 0"/>
<feBlend mode="normal" in2="shape" result="effect1_innerShadow_209_2"/>
</filter>
<filter id="filter1_i_209_2" x="23.2295" y="23.9248" width="25.811" height="29.3447" filterUnits="userSpaceOnUse" color-interpolation-filters="sRGB">
<feFlood flood-opacity="0" result="BackgroundImageFix"/>
<feBlend mode="normal" in="SourceGraphic" in2="BackgroundImageFix" result="shape"/>
<feColorMatrix in="SourceAlpha" type="matrix" values="0 0 0 0 0 0 0 0 0 0 0 0 0 0 0 0 0 0 127 0" result="hardAlpha"/>
<feOffset dy="4"/>
<feGaussianBlur stdDeviation="2"/>
<feComposite in2="hardAlpha" operator="arithmetic" k2="-1" k3="1"/>
<feColorMatrix type="matrix" values="0 0 0 0 0 0 0 0 0 0 0 0 0 0 0 0 0 0 0.25 0"/>
<feBlend mode="normal" in2="shape" result="effect1_innerShadow_209_2"/>
</filter>
<filter id="filter2_d_209_2" x="1.73584" y="8.3457" width="66.2173" height="64.4736" filterUnits="userSpaceOnUse" color-interpolation-filters="sRGB">
<feFlood flood-opacity="0" result="BackgroundImageFix"/>
<feColorMatrix in="SourceAlpha" type="matrix" values="0 0 0 0 0 0 0 0 0 0 0 0 0 0 0 0 0 0 127 0" result="hardAlpha"/>
<feOffset dy="4"/>
<feGaussianBlur stdDeviation="2"/>
<feComposite in2="hardAlpha" operator="out"/>
<feColorMatrix type="matrix" values="0 0 0 0 0 0 0 0 0 0 0 0 0 0 0 0 0 0 0.25 0"/>
<feBlend mode="normal" in2="BackgroundImageFix" result="effect1_dropShadow_209_2"/>
<feBlend mode="normal" in="SourceGraphic" in2="effect1_dropShadow_209_2" result="shape"/>
</filter>
</defs>
</svg>
